Coordinates
version=1
nRows=24
nColumns=22
inDegrees=yes

Units are S.I. units (second, meters, Newtons, ...)
If the header above contains a line with 'inDegrees', this indicates whether rotational values are in degrees (yes) or radians (no).

endheader
time	pelvis_tilt	pelvis_list	pelvis_rotation	pelvis_tx	pelvis_ty	pelvis_tz	hip_flexion_r	hip_adduction_r	hip_rotation_r	knee_angle_r	ankle_angle_r	subtalar_angle_r	hip_flexion_l	hip_adduction_l	hip_rotation_l	knee_angle_l	ankle_angle_l	subtalar_angle_l	lumbar_extension	lumbar_bending	lumbar_rotation
      3.37000000	     -1.13228318	      0.38869876	     21.21599704	     -0.17899863	      0.89056270	     -0.31613743	     -9.64685845	      8.10433931	     21.00769027	    -30.68173447	      4.76021181	     -5.91417933	     24.35716520	     -5.07522255	      3.17466026	    -19.41152860	      0.41517690	      8.10778310	     -6.06003905	     -2.72355957	      8.59743651
      3.38000000	     -1.14031109	      0.44070547	     20.29044111	     -0.16961067	      0.89067919	     -0.32113761	     -9.29394486	      7.95242871	     20.74387690	    -32.34457240	      2.88725545	     -5.58062389	     24.38998232	     -5.12762784	      2.78796786	    -21.06154702	      0.41622506	      7.66095480	     -5.72124995	     -2.96867794	      8.29448431
      3.39000000	     -1.10652400	      0.50700254	     19.33883436	     -0.16011352	      0.89105171	     -0.32595838	     -8.85110871	      7.81647715	     20.40660596	    -34.15241596	      0.72467887	     -5.22850624	     24.32944852	     -5.25018960	      2.18552338	    -22.66505490	      0.62781312	      7.33767750	     -5.43046615	     -3.21494963	      7.99156214
      3.40000000	     -1.02426796	      0.62156936	     18.35838758	     -0.15056729	      0.89172883	     -0.33062254	     -8.32838540	      7.65140846	     19.98545346	    -36.10674907	     -1.68710987	     -4.82818082	     24.11264158	     -5.38884377	      1.42522229	    -24.14452548	      1.01222539	      7.08756339	     -5.21481425	     -3.48939409	      7.67726426
      3.41000000	     -0.90282219	      0.80396354	     17.35125615	     -0.14105318	      0.89270903	     -0.33514737	     -7.70751022	      7.41980656	     19.46251985	    -38.22084431	     -4.26928634	     -4.40148139	     23.71260436	     -5.49503844	      0.55725786	    -25.43478905	      1.51499338	      6.86158310	     -5.07717488	     -3.81286530	      7.34870317
      3.42000000	     -0.75051833	      1.06065806	     16.32188205	     -0.13166459	      0.89396490	     -0.33953226	     -6.96701196	      7.10229201	     18.83584985	    -40.50876290	     -6.93630890	     -4.04043857	     23.12537992	     -5.53711963	     -0.38674639	    -26.49407436	      2.06177369	      6.67123555	     -5.01870159	     -4.19541334	      7.01888234
      3.43000000	     -0.60431330	      1.37451761	     15.27596164	     -0.12249053	      0.89540491	     -0.34377419	     -6.04976354	      6.69472245	     18.10490034	    -42.97841322	     -9.59563197	     -3.78231436	     22.38759163	     -5.50972601	     -1.41748220	    -27.27913154	      2.63698078	      6.48826945	     -4.99535956	     -4.62594937	      6.64231971
      3.44000000	     -0.47686864	      1.73422943	     14.21995988	     -0.11362231	      0.89696450	     -0.34787105	     -4.93395408	      6.19728492	     17.27643317	    -45.61400322	    -12.21025372	     -3.67032077	     21.52211749	     -5.40533062	     -2.50489348	    -27.77407163	      3.19354340	      6.34241147	     -4.99883957	     -5.09570626	      6.24191183
      3.45000000	     -0.38939934	      2.13842912	     13.16210034	     -0.10513077	      0.89855425	     -0.35182236	     -3.60800716	      5.60870717	     16.38986885	    -48.37121577	    -14.72666733	     -3.70902920	     20.57468342	     -5.20991366	     -3.64106242	    -27.99857306	      3.72031025	      6.21159252	     -5.01002652	     -5.60971140	      5.79971121
      3.46000000	     -0.33814776	      2.55733427	     12.11164668	     -0.09701548	      0.90013988	     -0.35566244	     -2.09678340	      4.95438808	     15.45949371	    -51.16771619	    -17.11339248	     -3.82639921	     19.55026266	     -4.94360504	     -4.79641964	    -27.93721220	      4.22296688	      6.11625752	     -5.02227754	     -6.12712826	      5.32366479
      3.47000000	     -0.29300401	      2.96365760	     11.06927336	     -0.08925244	      0.90172817	     -0.35936217	     -0.47402313	      4.29266486	     14.56688761	    -53.90187074	    -19.34086231	     -3.80007754	     18.45543448	     -4.64499605	     -5.97718519	    -27.64192652	      4.63387165	      6.10990241	     -5.06247127	     -6.61295350	      4.79434721
      3.48000000	     -0.27541604	      3.34946619	     10.03858241	     -0.08179434	      0.90323913	     -0.36293716	      1.24997721	      3.64219457	     13.73741354	    -56.51961542	    -21.24767846	     -3.67982240	     17.33120911	     -4.30724267	     -7.13697828	    -27.14757413	      5.05382312	      6.09530175	     -5.09758931	     -7.06362183	      4.21305464
      3.49000000	     -0.25086718	      3.67359865	      9.02425317	     -0.07459450	      0.90468833	     -0.36636925	      3.01207429	      3.06940296	     12.97534324	    -58.96297845	    -22.74032091	     -3.37554962	     16.18919997	     -3.98515848	     -8.26033725	    -26.53037796	      5.45796757	      6.08215636	     -5.15337340	     -7.42737341	      3.60127057
      3.50000000	     -0.21100861	      3.91474816	      8.02526229	     -0.06758224	      0.90608518	     -0.36960830	      4.77009999	      2.62623135	     12.30087825	    -61.18857439	    -23.73088714	     -2.87431386	     15.04620710	     -3.71103029	     -9.33786016	    -25.84500105	      5.83500855	      6.06326585	     -5.23400806	     -7.68925974	      2.95877572
      3.51000000	     -0.13479581	      4.04530104	      7.05243055	     -0.06069982	      0.90746187	     -0.37264935	      6.47775964	      2.35018841	     11.66978227	    -63.16507238	    -24.19896963	     -2.28059666	     13.90316873	     -3.52186089	    -10.34636930	    -25.13958085	      6.21155399	      6.04602980	     -5.35496751	     -7.81622735	      2.30076566
      3.52000000	     -0.01708377	      4.07266915	      6.11537448	     -0.05390617	      0.90883403	     -0.37549350	      8.10895312	      2.23955348	     11.05034038	    -64.88739438	    -24.14930427	     -1.74388060	     12.77121470	     -3.41882783	    -11.29528080	    -24.46503618	      6.58028380	      6.03151771	     -5.52305793	     -7.82235010	      1.62509249
      3.53000000	      0.13600531	      3.99952841	      5.21640769	     -0.04717937	      0.91020971	     -0.37813398	      9.65430799	      2.28408457	     10.40999247	    -66.34659660	    -23.61988660	     -1.39150931	     11.65093688	     -3.40003925	    -12.15314018	    -23.82493685	      6.96441070	      6.02536410	     -5.73496422	     -7.71626285	      0.93995406
      3.54000000	      0.31955637	      3.85276107	      4.37091408	     -0.04051490	      0.91158913	     -0.38061751	     11.11064448	      2.43089366	      9.69785879	    -67.54511338	    -22.72366317	     -1.16062768	     10.56201678	     -3.44833885	    -12.96583994	    -23.26024054	      7.30634390	      6.01632155	     -5.98960332	     -7.53071785	      0.24621274
      3.55000000	      0.52180802	      3.65292577	      3.58211293	     -0.03390070	      0.91295134	     -0.38297388	     12.48405689	      2.64479868	      8.90309002	    -68.49215361	    -21.53894922	     -1.03594024	      9.50566651	     -3.54130234	    -13.72213102	    -22.76336618	      7.64069839	      6.01859220	     -6.27449503	     -7.29089041	     -0.44331382
      3.56000000	      0.73462851	      3.42536787	      2.83379638	     -0.02732674	      0.91428410	     -0.38520225	     13.77671754	      2.89951921	      8.05594139	    -69.19493117	    -20.13766763	     -0.96206070	      8.47486413	     -3.65327636	    -14.42983202	    -22.31726207	      7.94985544	      6.03270796	     -6.57967762	     -7.02603306	     -1.12242212
      3.57000000	      0.95998071	      3.17893817	      2.13124778	     -0.02077512	      0.91557164	     -0.38733511	     14.98436367	      3.17276159	      7.15026755	    -69.65828237	    -18.59480128	     -0.90755853	      7.45536889	     -3.77363087	    -15.08294351	    -21.90438050	      8.24839696	      6.07056093	     -6.90404042	     -6.74639162	     -1.78186944
      3.58000000	      1.18596118	      2.92475309	      1.47933706	     -0.01425498	      0.91676320	     -0.38938482	     16.12489646	      3.44048902	      6.17882114	    -69.89583581	    -16.98099546	     -0.82914275	      6.46674491	     -3.89484519	    -15.68910212	    -21.53959797	      8.55214083	      6.13998893	     -7.23468204	     -6.46497892	     -2.42489831
      3.59000000	      1.40948839	      2.66945163	      0.86440662	     -0.00774367	      0.91784608	     -0.39134341	     17.19870176	      3.69609481	      5.16598536	    -69.90808465	    -15.35838403	     -0.72266492	      5.49510614	     -4.00840324	    -16.25425280	    -21.19482386	      8.86519845	      6.25093685	     -7.56368771	     -6.18958360	     -3.02872311
      3.60000000	      1.68485402	      2.39922974	      0.26370025	     -0.00119708	      0.91890067	     -0.39316965	     18.13541800	      3.96665539	      4.14849733	    -69.68078754	    -13.80311049	     -0.60323613	      4.44887188	     -4.12558703	    -16.78659259	    -20.81485821	      9.18801620	      6.49624274	     -7.94915213	     -5.90657113	     -3.58856288
